<svg xmlns="http://www.w3.org/2000/svg" xmlns:xlink="http://www.w3.org/1999/xlink" version="1.1" x="0px" y="0px" viewBox="0 0 32 32" enable-background="new 0 0 32 32" xml:space="preserve"><g><g><path d="M28,7h-2.4l-1.2-2.3c-0.5-1-1.5-1.7-2.7-1.7H10.2C9.1,3,8.1,3.6,7.6,4.7L6.4,7H4c-1.7,0-3,1.3-3,3v16c0,1.7,1.3,3,3,3h24    c1.7,0,3-1.3,3-3V10C31,8.3,29.7,7,28,7z M29,26c0,0.6-0.4,1-1,1H4c-0.6,0-1-0.4-1-1V10c0-0.6,0.4-1,1-1h3c0.4,0,0.7-0.2,0.9-0.6    l1.4-2.9C9.5,5.2,9.9,5,10.2,5h11.5c0.4,0,0.7,0.2,0.9,0.6l1.4,2.9C24.3,8.8,24.6,9,25,9h3c0.6,0,1,0.4,1,1V26z"/><path d="M16,9c-4.4,0-8,3.6-8,8s3.6,8,8,8s8-3.6,8-8S20.4,9,16,9z M16,23c-3.3,0-6-2.7-6-6s2.7-6,6-6s6,2.7,6,6S19.3,23,16,23z"/></g></g></svg>