<svg xmlns="http://www.w3.org/2000/svg" xmlns:xlink="http://www.w3.org/1999/xlink" version="1.1" x="0px" y="0px" viewBox="0 0 32 32" style="enable-background:new 0 0 32 32;" xml:space="preserve"><style type="text/css">
	.st0{display:none;}
</style><g><g><path d="M16,21c3.3,0,6-2.7,6-6V7c0-3.3-2.7-6-6-6s-6,2.7-6,6v8C10,18.3,12.7,21,16,21z M12,7c0-2.2,1.8-4,4-4s4,1.8,4,4v8    c0,2.2-1.8,4-4,4s-4-1.8-4-4V7z"/><path d="M25,10c-0.6,0-1,0.4-1,1v4c0,4.4-3.6,8-8,8s-8-3.6-8-8v-4c0-0.6-0.4-1-1-1s-1,0.4-1,1v4c0,5.2,4,9.4,9,9.9V30    c0,0.6,0.4,1,1,1s1-0.4,1-1v-5.1c5-0.5,9-4.8,9-9.9v-4C26,10.4,25.6,10,25,10z"/></g></g></svg>