<svg xmlns="http://www.w3.org/2000/svg" xmlns:xlink="http://www.w3.org/1999/xlink" version="1.1" x="0px" y="0px" viewBox="0 0 66 66" style="enable-background:new 0 0 66 66;" xml:space="preserve"><g><path d="M61.1,19L61.1,19c-1.5-0.8-3.3-0.8-4.7,0l-10.2,5.9v-4.1c0-3.4-2.8-6.2-6.2-6.2H8.8c-3.4,0-6.2,2.8-6.2,6.2v24.4   c0,3.4,2.8,6.2,6.2,6.2h31.2c3.4,0,6.2-2.8,6.2-6.2v-4.1L56.4,47c2.3,1.3,5.2,0.5,6.5-1.7c0.4-0.7,0.6-1.4,0.6-2.4V23.1   C63.5,21.5,62.6,19.9,61.1,19z M59.8,23.1v19.8c0,0.3-0.1,0.6-0.3,0.8c-0.2,0.2-0.5,0.3-0.8,0.3c-0.2,0-0.4-0.1-0.6-0.2l-12.1-7   v-7.7l12.1-7c0.3-0.2,0.6-0.2,0.8-0.1c0.3,0.1,0.5,0.3,0.7,0.5C59.8,22.8,59.8,22.9,59.8,23.1z M6.1,20.8c0-0.7,0.3-1.4,0.7-1.8   c0.5-0.5,1.2-0.8,1.8-0.8h31.2c1.5,0,2.7,1.1,2.7,2.6v24.4c0,1.5-1.1,2.6-2.6,2.6H8.7c-1.5,0-2.6-1.1-2.6-2.6V20.8z"/><path d="M12.1,26.6h23.4c1,0,1.8-0.8,1.8-1.8c0-1-0.8-1.8-1.8-1.8H12.1c-1,0-1.8,0.8-1.8,1.8S11.1,26.6,12.1,26.6z"/></g></svg>